<?xml version="1.0" encoding="UTF-8" standalone="no"?>
<svg
   xmlns:dc="http://purl.org/dc/elements/1.1/"
   xmlns:cc="http://creativecommons.org/ns#"
   xmlns:rdf="http://www.w3.org/1999/02/22-rdf-syntax-ns#"
   xmlns:svg="http://www.w3.org/2000/svg"
   xmlns="http://www.w3.org/2000/svg"
   aria-label="Twitter"
   role="img"
   viewBox="0 0 512 512"
   version="1.1"
   id="svg6">
  <metadata
     id="metadata12">
    <rdf:RDF>
      <cc:Work
         rdf:about="">
        <dc:format>image/svg+xml</dc:format>
        <dc:type
           rdf:resource="http://purl.org/dc/dcmitype/StillImage" />
        <dc:title></dc:title>
      </cc:Work>
    </rdf:RDF>
  </metadata>
  <defs
     id="defs10" />
  <rect
     width="512"
     height="512"
     rx="15%"
     fill="#1da1f2"
     id="rect2"
     style="fill:#000000" />
  <path
     fill="#fff"
     d="M437 152a72 72 0 01-40 12a72 72 0 0032-40a72 72 0 01-45 17a72 72 0 00-122 65a200 200 0 01-145-74a72 72 0 0022 94a72 72 0 01-32-7a72 72 0 0056 69a72 72 0 01-32 1a72 72 0 0067 50a200 200 0 01-105 29a200 200 0 00309-179a200 200 0 0035-37"
     id="path4" />
</svg>
